<svg width="15" height="16" viewBox="0 0 15 16" fill="none" xmlns="http://www.w3.org/2000/svg">
    <path d="M10.6458 3.74984H14.0833V5.1665H12.7083V14.3748C12.7083 14.5627 12.6358 14.7429 12.5069 14.8757C12.378 15.0085 12.2031 15.0832 12.0208 15.0832H2.39575C2.21342 15.0832 2.03855 15.0085 1.90962 14.8757C1.78068 14.7429 1.70825 14.5627 1.70825 14.3748V5.1665H0.333252V3.74984H3.77075V1.62484C3.77075 1.43698 3.84318 1.25681 3.97212 1.12397C4.10105 0.991132 4.27592 0.916504 4.45825 0.916504H9.95825C10.1406 0.916504 10.3155 0.991132 10.4444 1.12397C10.5733 1.25681 10.6458 1.43698 10.6458 1.62484V3.74984ZM11.3333 5.1665H3.08325V13.6665H11.3333V5.1665ZM8.18038 9.4165L9.39588 10.6688L8.42375 11.6704L7.20825 10.4181L5.99275 11.6704L5.02063 10.6688L6.23613 9.4165L5.02063 8.16417L5.99275 7.16259L7.20825 8.41492L8.42375 7.16259L9.39588 8.16417L8.18038 9.4165ZM5.14575 2.33317V3.74984H9.27075V2.33317H5.14575Z"
          fill="#F93030"/>
</svg>
