<svg width="15" height="16" viewBox="0 0 15 16" fill="none" xmlns="http://www.w3.org/2000/svg">
    <path d="M10.6455 3.75033H14.083V5.16699H12.708V14.3753C12.708 14.5632 12.6356 14.7434 12.5066 14.8762C12.3777 15.009 12.2028 15.0837 12.0205 15.0837H2.39551C2.21317 15.0837 2.0383 15.009 1.90937 14.8762C1.78044 14.7434 1.70801 14.5632 1.70801 14.3753V5.16699H0.333008V3.75033H3.77051V1.62533C3.77051 1.43746 3.84294 1.2573 3.97187 1.12446C4.1008 0.99162 4.27567 0.916992 4.45801 0.916992H9.95801C10.1403 0.916992 10.3152 0.99162 10.4441 1.12446C10.5731 1.2573 10.6455 1.43746 10.6455 1.62533V3.75033ZM11.333 5.16699H3.08301V13.667H11.333V5.16699ZM8.18013 9.41699L9.39563 10.6693L8.42351 11.6709L7.20801 10.4186L5.99251 11.6709L5.02038 10.6693L6.23588 9.41699L5.02038 8.16466L5.99251 7.16308L7.20801 8.41541L8.42351 7.16308L9.39563 8.16466L8.18013 9.41699ZM5.14551 2.33366V3.75033H9.27051V2.33366H5.14551Z"
          fill="#595959"/>
</svg>

