<svg width="18" height="18" viewBox="0 0 18 18" fill="none" xmlns="http://www.w3.org/2000/svg">
<path d="M11.7112 0.86554C12.2101 0.86554 12.615 1.27045 12.615 1.76937V5.38468C12.615 5.88359 12.2101 6.28851 11.7112 6.28851H9.90352V8.09617H13.5188C14.0177 8.09617 14.4227 8.50108 14.4227 8.99999V11.7115H16.2303C16.7292 11.7115 17.1341 12.1164 17.1341 12.6153V16.2306C17.1341 16.7295 16.7292 17.1344 16.2303 17.1344H10.8073C10.3084 17.1344 9.90352 16.7295 9.90352 16.2306V12.6153C9.90352 12.1164 10.3084 11.7115 10.8073 11.7115H12.615V9.90382H5.38438V11.7115H7.19203C7.69095 11.7115 8.09586 12.1164 8.09586 12.6153V16.2306C8.09586 16.7295 7.69095 17.1344 7.19203 17.1344H1.76906C1.27015 17.1344 0.865234 16.7295 0.865234 16.2306V12.6153C0.865234 12.1164 1.27015 11.7115 1.76906 11.7115H3.57672V8.99999C3.57672 8.50108 3.98163 8.09617 4.48055 8.09617H8.09586V6.28851H6.2882C5.78929 6.28851 5.38438 5.88359 5.38438 5.38468V1.76937C5.38438 1.27045 5.78929 0.86554 6.2882 0.86554H11.7112ZM6.2882 13.5191H2.67289V15.3268H6.2882V13.5191ZM15.3265 13.5191H11.7112V15.3268H15.3265V13.5191ZM10.8073 2.6732H7.19203V4.48085H10.8073V2.6732Z" fill="white"/>
</svg>
