<svg width="16" height="16" viewBox="0 0 16 16" fill="none" xmlns="http://www.w3.org/2000/svg">
<path d="M3.92083 5.32501C4.06538 5.85404 4.37983 6.32088 4.81575 6.65366C5.25168 6.98644 5.7849 7.1667 6.33333 7.16667H9.66666C10.6483 7.16675 11.5985 7.51336 12.3496 8.14543C13.1008 8.7775 13.6047 9.65444 13.7725 10.6217C14.3381 10.8062 14.8194 11.1863 15.1299 11.6937C15.4405 12.2012 15.5599 12.8027 15.4669 13.3903C15.3738 13.9779 15.0744 14.5131 14.6222 14.8998C14.1701 15.2864 13.5949 15.4993 13 15.5C12.4179 15.5005 11.854 15.2978 11.4053 14.927C10.9567 14.5561 10.6515 14.0404 10.5424 13.4687C10.4333 12.8969 10.5271 12.305 10.8076 11.795C11.0882 11.2851 11.5378 10.8889 12.0792 10.675C11.9346 10.146 11.6202 9.67913 11.1842 9.34635C10.7483 9.01357 10.2151 8.83332 9.66666 8.83334H6.33333C5.43157 8.83467 4.55394 8.54212 3.83333 8.00001V10.6417C4.38957 10.8383 4.85841 11.2252 5.15696 11.734C5.45552 12.2429 5.56457 12.8409 5.46484 13.4223C5.36511 14.0038 5.06302 14.5313 4.61197 14.9116C4.16092 15.2918 3.58996 15.5004 3 15.5004C2.41003 15.5004 1.83907 15.2918 1.38802 14.9116C0.93697 14.5313 0.634882 14.0038 0.535153 13.4223C0.435424 12.8409 0.544474 12.2429 0.843029 11.734C1.14158 11.2252 1.61042 10.8383 2.16666 10.6417V5.35834C1.61414 5.16326 1.14766 4.78037 0.848623 4.27648C0.549583 3.77258 0.436972 3.17969 0.530441 2.60124C0.62391 2.0228 0.917522 1.49554 1.36004 1.11148C1.80257 0.727408 2.3659 0.51092 2.95174 0.499788C3.53758 0.488656 4.10873 0.683586 4.56552 1.05056C5.02232 1.41754 5.33575 1.93326 5.45112 2.50774C5.5665 3.08221 5.4765 3.67896 5.19682 4.19385C4.91714 4.70874 4.46554 5.10908 3.92083 5.32501Z" fill="white"/>
</svg>
