<svg width="14" height="14" viewBox="0 0 14 14" fill="none" xmlns="http://www.w3.org/2000/svg">
<path d="M6.325 6.325V3.625H7.675V6.325H10.375V7.675H7.675V10.375H6.325V7.675H3.625V6.325H6.325ZM7 13.75C3.27198 13.75 0.25 10.728 0.25 7C0.25 3.27198 3.27198 0.25 7 0.25C10.728 0.25 13.75 3.27198 13.75 7C13.75 10.728 10.728 13.75 7 13.75ZM7 12.4C8.43217 12.4 9.80568 11.8311 10.8184 10.8184C11.8311 9.80568 12.4 8.43217 12.4 7C12.4 5.56783 11.8311 4.19432 10.8184 3.18162C9.80568 2.16893 8.43217 1.6 7 1.6C5.56783 1.6 4.19432 2.16893 3.18162 3.18162C2.16893 4.19432 1.6 5.56783 1.6 7C1.6 8.43217 2.16893 9.80568 3.18162 10.8184C4.19432 11.8311 5.56783 12.4 7 12.4Z" fill="#595959"/>
</svg>
