<svg width="12" height="12" viewBox="0 0 12 12" fill="none" xmlns="http://www.w3.org/2000/svg">
<path d="M8.9165 2.60001H11.6665V3.73334H10.5665V11.1C10.5665 11.2503 10.5086 11.3944 10.4054 11.5007C10.3023 11.607 10.1624 11.6667 10.0165 11.6667H2.3165C2.17063 11.6667 2.03074 11.607 1.9276 11.5007C1.82445 11.3944 1.7665 11.2503 1.7665 11.1V3.73334H0.666504V2.60001H3.4165V0.90001C3.4165 0.749721 3.47445 0.605587 3.5776 0.499316C3.68074 0.393046 3.82063 0.333344 3.9665 0.333344H8.3665C8.51237 0.333344 8.65227 0.393046 8.75541 0.499316C8.85856 0.605587 8.9165 0.749721 8.9165 0.90001V2.60001ZM9.4665 3.73334H2.8665V10.5333H9.4665V3.73334ZM6.9442 7.13334L7.9166 8.13521L7.1389 8.93648L6.1665 7.93461L5.1941 8.93648L4.4164 8.13521L5.3888 7.13334L4.4164 6.13148L5.1941 5.33021L6.1665 6.33208L7.1389 5.33021L7.9166 6.13148L6.9442 7.13334ZM4.5165 1.46668V2.60001H7.8165V1.46668H4.5165Z" fill="#595959"/>
</svg>
