<svg width="18" height="18" viewBox="0 0 18 18" fill="none" xmlns="http://www.w3.org/2000/svg">
<path d="M9 0.75C13.5565 0.75 17.25 4.44353 17.25 9C17.25 13.5565 13.5565 17.25 9 17.25C4.44353 17.25 0.75 13.5565 0.75 9H2.4C2.4 12.6448 5.35515 15.6 9 15.6C12.6448 15.6 15.6 12.6448 15.6 9C15.6 5.35515 12.6448 2.4 9 2.4C6.9672 2.4 5.1489 3.31905 3.93862 4.76362L5.7 6.525H0.75V1.575L2.76877 3.59295C4.281 1.8522 6.5118 0.75 9 0.75ZM9.825 4.875V8.65762L12.5005 11.3331L11.3331 12.5005L8.175 9.34072V4.875H9.825Z" fill="#595959"/>
</svg>
