<svg width="9" height="12" viewBox="0 0 9 12" fill="none" xmlns="http://www.w3.org/2000/svg">
<path d="M7.91725 6.27722L0.851252 10.9879C0.801056 11.0213 0.742739 11.0404 0.682513 11.0433C0.622287 11.0462 0.562407 11.0327 0.509251 11.0042C0.456096 10.9758 0.411654 10.9334 0.380661 10.8817C0.349668 10.83 0.333283 10.7708 0.333252 10.7105V1.28922C0.333283 1.22892 0.349668 1.16976 0.380661 1.11804C0.411654 1.06633 0.456096 1.02398 0.509251 0.995522C0.562407 0.967063 0.622287 0.953554 0.682513 0.956436C0.742739 0.959317 0.801056 0.978479 0.851252 1.01188L7.91725 5.72255C7.9629 5.75299 8.00034 5.79423 8.02623 5.84261C8.05211 5.89099 8.06566 5.94501 8.06566 5.99988C8.06566 6.05475 8.05211 6.10878 8.02623 6.15715C8.00034 6.20553 7.9629 6.24678 7.91725 6.27722Z" fill="white"/>
</svg>
