<svg width="12" height="12" viewBox="0 0 12 12" fill="none" xmlns="http://www.w3.org/2000/svg">
<path d="M6 11.25C3.10043 11.25 0.75 8.89957 0.75 6C0.75 3.10043 3.10043 0.75 6 0.75C8.89957 0.75 11.25 3.10043 11.25 6C11.25 8.89957 8.89957 11.25 6 11.25ZM6 10.2C7.11391 10.2 8.1822 9.7575 8.96985 8.96985C9.7575 8.1822 10.2 7.11391 10.2 6C10.2 4.88609 9.7575 3.8178 8.96985 3.03015C8.1822 2.2425 7.11391 1.8 6 1.8C4.88609 1.8 3.8178 2.2425 3.03015 3.03015C2.2425 3.8178 1.8 4.88609 1.8 6C1.8 7.11391 2.2425 8.1822 3.03015 8.96985C3.8178 9.7575 4.88609 10.2 6 10.2ZM6 5.25765L7.4847 3.77242L8.22757 4.5153L6.74235 6L8.22757 7.4847L7.4847 8.22757L6 6.74235L4.5153 8.22757L3.77242 7.4847L5.25765 6L3.77242 4.5153L4.5153 3.77242L6 5.25765Z" fill="#595959"/>
</svg>
