<svg width="18" height="18" viewBox="0 0 18 18" fill="none" xmlns="http://www.w3.org/2000/svg">
<path d="M0.666748 8.99999C0.666748 8.25208 0.758419 7.52752 0.930095 6.83495C1.39051 6.86006 1.84864 6.75259 2.25386 6.52443C2.65908 6.29627 2.9956 5.9563 3.22621 5.5421C3.45683 5.1279 3.57257 4.65561 3.56062 4.17743C3.54868 3.69925 3.40952 3.23381 3.15854 2.83256C4.16604 1.80414 5.40931 1.05876 6.77122 0.666656C6.98039 1.09333 7.29928 1.45163 7.69259 1.70189C8.08589 1.95215 8.53828 2.08462 8.99966 2.08462C9.46105 2.08462 9.91344 1.95215 10.3067 1.70189C10.7001 1.45163 11.0189 1.09333 11.2281 0.666656C12.59 1.05876 13.8333 1.80414 14.8408 2.83256C14.5895 3.23389 14.4502 3.6995 14.4381 4.1779C14.4261 4.6563 14.5419 5.12882 14.7726 5.5432C15.0034 5.95757 15.3401 6.29764 15.7456 6.52577C16.1511 6.7539 16.6095 6.86121 17.0701 6.83581C17.2417 7.52752 17.3334 8.25208 17.3334 8.99999C17.3334 9.7479 17.2417 10.4725 17.0701 11.165C16.6096 11.1398 16.1513 11.2471 15.746 11.4752C15.3407 11.7033 15.004 12.0432 14.7733 12.4575C14.5426 12.8717 14.4268 13.3441 14.4387 13.8223C14.4506 14.3006 14.5898 14.7661 14.8408 15.1674C13.8333 16.1958 12.59 16.9412 11.2281 17.3333C11.0189 16.9067 10.7001 16.5484 10.3067 16.2981C9.91344 16.0478 9.46105 15.9154 8.99966 15.9154C8.53828 15.9154 8.08589 16.0478 7.69259 16.2981C7.29928 16.5484 6.98039 16.9067 6.77122 17.3333C5.40931 16.9412 4.16604 16.1958 3.15854 15.1674C3.40981 14.7661 3.54917 14.3005 3.5612 13.8221C3.57323 13.3437 3.45747 12.8712 3.22672 12.4568C2.99597 12.0424 2.65923 11.7023 2.25375 11.4742C1.84827 11.2461 1.38987 11.1388 0.929261 11.1642C0.758419 10.4733 0.666748 9.74876 0.666748 8.99999ZM4.67028 11.5939C5.19531 12.5372 5.34532 13.6223 5.14031 14.6409C5.48032 14.8916 5.84201 15.1086 6.22119 15.2893C6.98512 14.5793 7.97488 14.187 9.0005 14.1878C10.0506 14.1878 11.0323 14.595 11.7798 15.2893C12.159 15.1086 12.5207 14.8916 12.8607 14.6409C12.6502 13.5998 12.8176 12.5148 13.3307 11.5939C13.8429 10.6725 14.665 9.97975 15.6392 9.64847C15.6777 9.21707 15.6777 8.78291 15.6392 8.35152C14.6647 8.02041 13.8423 7.32763 13.3299 6.40609C12.8168 5.4852 12.6494 4.40017 12.8599 3.35912C12.5199 3.10831 12.158 2.8912 11.779 2.71065C11.0153 3.42045 10.0258 3.81272 9.0005 3.81219C7.97488 3.81293 6.98512 3.42065 6.22119 2.71065C5.84212 2.89121 5.48023 3.10832 5.14031 3.35912C5.35079 4.40017 5.18341 5.4852 4.67028 6.40609C4.15807 7.32747 3.33603 8.02023 2.36183 8.35152C2.32329 8.78291 2.32329 9.21707 2.36183 9.64847C3.33634 9.97957 4.1587 10.6723 4.67111 11.5939H4.67028ZM9.0005 11.5939C8.33742 11.5939 7.70151 11.3206 7.23264 10.8342C6.76378 10.3477 6.50037 9.68794 6.50037 8.99999C6.50037 8.31205 6.76378 7.65228 7.23264 7.16583C7.70151 6.67938 8.33742 6.40609 9.0005 6.40609C9.66357 6.40609 10.2995 6.67938 10.7684 7.16583C11.2372 7.65228 11.5006 8.31205 11.5006 8.99999C11.5006 9.68794 11.2372 10.3477 10.7684 10.8342C10.2995 11.3206 9.66357 11.5939 9.0005 11.5939ZM9.0005 9.86462C9.22152 9.86462 9.4335 9.77353 9.58978 9.61138C9.74607 9.44923 9.83387 9.22931 9.83387 8.99999C9.83387 8.77068 9.74607 8.55075 9.58978 8.3886C9.4335 8.22645 9.22152 8.13536 9.0005 8.13536C8.77947 8.13536 8.5675 8.22645 8.41121 8.3886C8.25493 8.55075 8.16712 8.77068 8.16712 8.99999C8.16712 9.22931 8.25493 9.44923 8.41121 9.61138C8.5675 9.77353 8.77947 9.86462 9.0005 9.86462Z" fill="#595959"/>
</svg>
