<svg width="17" height="16" viewBox="0 0 17 16" fill="none" xmlns="http://www.w3.org/2000/svg">
<path d="M4.41675 7.5835C3.92429 7.5835 3.43666 7.4865 2.98169 7.29804C2.52671 7.10959 2.11332 6.83337 1.7651 6.48515C1.41688 6.13693 1.14065 5.72353 0.9522 5.26856C0.763745 4.81359 0.666748 4.32595 0.666748 3.8335C0.666748 3.34104 0.763745 2.8534 0.9522 2.39843C1.14065 1.94346 1.41688 1.53007 1.7651 1.18185C2.11332 0.833626 2.52671 0.557403 2.98169 0.368948C3.43666 0.180493 3.92429 0.0834961 4.41675 0.0834961C5.41131 0.0834961 6.36514 0.478584 7.0684 1.18185C7.77166 1.88511 8.16675 2.83893 8.16675 3.8335C8.16675 4.82806 7.77166 5.78188 7.0684 6.48515C6.36514 7.18841 5.41131 7.5835 4.41675 7.5835ZM4.83341 15.9168C3.83885 15.9168 2.88503 15.5217 2.18176 14.8185C1.4785 14.1152 1.08341 13.1614 1.08341 12.1668C1.08341 11.1723 1.4785 10.2184 2.18176 9.51518C2.88503 8.81192 3.83885 8.41683 4.83341 8.41683C5.82798 8.41683 6.7818 8.81192 7.48506 9.51518C8.18833 10.2184 8.58341 11.1723 8.58341 12.1668C8.58341 13.1614 8.18833 14.1152 7.48506 14.8185C6.7818 15.5217 5.82798 15.9168 4.83341 15.9168ZM13.1667 7.5835C12.6743 7.5835 12.1867 7.4865 11.7317 7.29804C11.2767 7.10959 10.8633 6.83337 10.5151 6.48515C10.1669 6.13693 9.89065 5.72353 9.7022 5.26856C9.51374 4.81359 9.41675 4.32595 9.41675 3.8335C9.41675 3.34104 9.51374 2.8534 9.7022 2.39843C9.89065 1.94346 10.1669 1.53007 10.5151 1.18185C10.8633 0.833626 11.2767 0.557403 11.7317 0.368948C12.1867 0.180493 12.6743 0.0834961 13.1667 0.0834961C14.1613 0.0834961 15.1151 0.478584 15.8184 1.18185C16.5217 1.88511 16.9167 2.83893 16.9167 3.8335C16.9167 4.82806 16.5217 5.78188 15.8184 6.48515C15.1151 7.18841 14.1613 7.5835 13.1667 7.5835ZM13.1667 15.9168C12.1722 15.9168 11.2184 15.5217 10.5151 14.8185C9.81184 14.1152 9.41675 13.1614 9.41675 12.1668C9.41675 11.1723 9.81184 10.2184 10.5151 9.51518C11.2184 8.81192 12.1722 8.41683 13.1667 8.41683C14.1613 8.41683 15.1151 8.81192 15.8184 9.51518C16.5217 10.2184 16.9167 11.1723 16.9167 12.1668C16.9167 13.1614 16.5217 14.1152 15.8184 14.8185C15.1151 15.5217 14.1613 15.9168 13.1667 15.9168ZM4.41675 5.91683C4.96928 5.91683 5.49919 5.69734 5.88989 5.30663C6.28059 4.91593 6.50008 4.38603 6.50008 3.8335C6.50008 3.28096 6.28059 2.75106 5.88989 2.36036C5.49919 1.96966 4.96928 1.75016 4.41675 1.75016C3.86421 1.75016 3.33431 1.96966 2.94361 2.36036C2.55291 2.75106 2.33341 3.28096 2.33341 3.8335C2.33341 4.38603 2.55291 4.91593 2.94361 5.30663C3.33431 5.69734 3.86421 5.91683 4.41675 5.91683ZM4.83341 14.2502C5.38595 14.2502 5.91585 14.0307 6.30655 13.64C6.69725 13.2493 6.91675 12.7194 6.91675 12.1668C6.91675 11.6143 6.69725 11.0844 6.30655 10.6937C5.91585 10.303 5.38595 10.0835 4.83341 10.0835C4.28088 10.0835 3.75098 10.303 3.36028 10.6937C2.96957 11.0844 2.75008 11.6143 2.75008 12.1668C2.75008 12.7194 2.96957 13.2493 3.36028 13.64C3.75098 14.0307 4.28088 14.2502 4.83341 14.2502ZM13.1667 5.91683C13.7193 5.91683 14.2492 5.69734 14.6399 5.30663C15.0306 4.91593 15.2501 4.38603 15.2501 3.8335C15.2501 3.28096 15.0306 2.75106 14.6399 2.36036C14.2492 1.96966 13.7193 1.75016 13.1667 1.75016C12.6142 1.75016 12.0843 1.96966 11.6936 2.36036C11.3029 2.75106 11.0834 3.28096 11.0834 3.8335C11.0834 4.38603 11.3029 4.91593 11.6936 5.30663C12.0843 5.69734 12.6142 5.91683 13.1667 5.91683ZM13.1667 14.2502C13.7193 14.2502 14.2492 14.0307 14.6399 13.64C15.0306 13.2493 15.2501 12.7194 15.2501 12.1668C15.2501 11.6143 15.0306 11.0844 14.6399 10.6937C14.2492 10.303 13.7193 10.0835 13.1667 10.0835C12.6142 10.0835 12.0843 10.303 11.6936 10.6937C11.3029 11.0844 11.0834 11.6143 11.0834 12.1668C11.0834 12.7194 11.3029 13.2493 11.6936 13.64C12.0843 14.0307 12.6142 14.2502 13.1667 14.2502Z" fill="#595959"/>
</svg>
